<svg width="21" height="13" viewBox="0 0 21 13" fill="none" xmlns="http://www.w3.org/2000/svg">
<path fill-rule="evenodd" clip-rule="evenodd" d="M6.73186 12.7006C6.33368 13.0998 5.6881 13.0998 5.28992 12.7006L0.298577 7.69591C-0.0996051 7.29667 -0.099605 6.64937 0.298577 6.25013L5.28992 1.24547C5.6881 0.846232 6.33368 0.846232 6.73186 1.24547C7.13004 1.64472 7.13004 2.29202 6.73186 2.69126L3.4811 5.95069L19.0588 5.95069C19.6219 5.95069 20.0784 6.40841 20.0784 6.97302C20.0784 7.53764 19.6219 7.99535 19.0588 7.99535L3.4811 7.99535L6.73186 11.2548C7.13004 11.654 7.13004 12.3013 6.73186 12.7006ZM5.62267 12.3669C5.83708 12.5819 6.1847 12.5819 6.39911 12.3669C6.61351 12.1519 6.61351 11.8034 6.39911 11.5884L2.74667 7.92625C2.67938 7.85877 2.65924 7.7573 2.69566 7.66914C2.73208 7.58098 2.81788 7.5235 2.91305 7.5235L19.0588 7.52351C19.362 7.52351 19.6078 7.27705 19.6078 6.97302C19.6078 6.669 19.362 6.42254 19.0588 6.42254L2.91305 6.42254C2.81788 6.42254 2.73208 6.36506 2.69566 6.2769C2.65925 6.18874 2.67938 6.08727 2.74667 6.01979L6.39911 2.35762C6.61351 2.14264 6.61351 1.7941 6.39911 1.57912C6.1847 1.36414 5.83708 1.36414 5.62267 1.57912L0.631331 6.58377C0.416926 6.79875 0.416926 7.14729 0.631331 7.36227L5.62267 12.3669Z" fill="#0030FF"/>
</svg>
