<svg width="24" height="13" viewBox="0 0 24 13" fill="none" xmlns="http://www.w3.org/2000/svg">
<path fill-rule="evenodd" clip-rule="evenodd" d="M18.5443 0.464858L23.5356 5.4562C23.8419 5.76249 23.8419 6.25909 23.5356 6.56539L18.5443 11.5567C18.238 11.863 17.7414 11.863 17.4351 11.5567C17.1288 11.2504 17.1288 10.7538 17.4351 10.4475L21.0875 6.79511L4.94178 6.79511C4.50862 6.79511 4.15747 6.44396 4.15747 6.01079C4.15747 5.57763 4.50862 5.22648 4.94178 5.22648L21.0875 5.22648L17.4351 1.57405C17.1288 1.26775 17.1288 0.771152 17.4351 0.464858C17.7414 0.158565 18.238 0.158565 18.5443 0.464858Z" fill="#0030FF"/>
<path fill-rule="evenodd" clip-rule="evenodd" d="M17.2681 0.298636C17.6663 -0.0995455 18.3119 -0.0995452 18.7101 0.298636L23.7014 5.28998C24.0996 5.68816 24.0996 6.33374 23.7014 6.73192L18.7101 11.7233C18.3119 12.1214 17.6663 12.1214 17.2681 11.7233C16.87 11.3251 16.87 10.6795 17.2681 10.2813L20.5189 7.03056L4.94124 7.03056C4.37812 7.03056 3.92163 6.57406 3.92163 6.01095C3.92163 5.44784 4.37812 4.99134 4.94124 4.99134L20.5189 4.99134L17.2681 1.74058C16.87 1.3424 16.87 0.696818 17.2681 0.298636ZM18.3773 0.631393C18.1629 0.416987 17.8153 0.416987 17.6009 0.631392C17.3865 0.845798 17.3865 1.19342 17.6009 1.40782L21.2533 5.06026C21.3206 5.12755 21.3408 5.22876 21.3043 5.31668C21.2679 5.4046 21.1821 5.46193 21.087 5.46193L4.94124 5.46193C4.63802 5.46193 4.39222 5.70773 4.39222 6.01095C4.39222 6.31417 4.63802 6.55997 4.94124 6.55997L21.087 6.55997C21.1821 6.55997 21.2679 6.6173 21.3043 6.70522C21.3408 6.79314 21.3206 6.89435 21.2533 6.96164L17.6009 10.6141C17.3865 10.8285 17.3865 11.1761 17.6009 11.3905C17.8153 11.6049 18.1629 11.6049 18.3773 11.3905L23.3687 6.39916C23.5831 6.18476 23.5831 5.83714 23.3687 5.62273L18.3773 0.631393Z" fill="#0030FF"/>
<path d="M1.80447 6.01103C1.80447 6.44419 1.45332 6.79534 1.02015 6.79534C0.586989 6.79534 0.23584 6.44419 0.23584 6.01103C0.23584 5.57786 0.586989 5.22672 1.02015 5.22672C1.45332 5.22672 1.80447 5.57786 1.80447 6.01103Z" fill="#0030FF"/>
<path fill-rule="evenodd" clip-rule="evenodd" d="M1.01961 5.46217C0.716393 5.46217 0.470588 5.70797 0.470588 6.01118C0.470588 6.3144 0.716393 6.5602 1.01961 6.5602C1.32282 6.5602 1.56863 6.3144 1.56863 6.01118C1.56863 5.70797 1.32282 5.46217 1.01961 5.46217ZM0 6.01118C0 5.44807 0.456494 4.99158 1.01961 4.99158C1.58272 4.99158 2.03922 5.44807 2.03922 6.01118C2.03922 6.5743 1.58272 7.03079 1.01961 7.03079C0.456494 7.03079 0 6.5743 0 6.01118Z" fill="#0030FF"/>
</svg>
