<svg width="98" height="99" viewBox="0 0 98 99" fill="none" xmlns="http://www.w3.org/2000/svg">
<path fill-rule="evenodd" clip-rule="evenodd" d="M68.9122 17.5933L36.7442 12.4604L12.6748 34.4101L14.8287 66.9137L41.5839 85.4954L72.7934 76.1628L84.9556 45.9435L68.9122 17.5933ZM77.3514 8.29438C76.7893 7.30115 75.8055 6.61792 74.6786 6.4381L34.7358 0.0646524C33.6088 -0.115175 32.4613 0.227974 31.618 0.996961L1.73116 28.2517C0.887907 29.0207 0.440713 30.1318 0.516174 31.2706L3.19063 71.6301C3.26608 72.7688 3.85598 73.8112 4.79332 74.4622L38.0152 97.535C38.9525 98.186 40.1353 98.3747 41.2287 98.0478L79.9812 86.4596C81.0746 86.1326 81.9596 85.3255 82.3857 84.2668L97.4875 46.7437C97.9136 45.685 97.8344 44.4899 97.2723 43.4967L77.3514 8.29438Z" fill="white" fill-opacity="0.13"/>
</svg>
