<svg width="16" height="16" viewBox="0 0 16 16" fill="none" xmlns="http://www.w3.org/2000/svg">
<path fill-rule="evenodd" clip-rule="evenodd" d="M15.2262 0.773778C15.3135 0.860863 15.3828 0.964318 15.43 1.07821C15.4773 1.19211 15.5016 1.31421 15.5016 1.43753C15.5016 1.56084 15.4773 1.68294 15.43 1.79684C15.3828 1.91074 15.3135 2.01419 15.2262 2.10128L2.10121 15.2263C1.92518 15.4023 1.68642 15.5012 1.43746 15.5012C1.18851 15.5012 0.949751 15.4023 0.773713 15.2263C0.597676 15.0502 0.498779 14.8115 0.498779 14.5625C0.498779 14.3136 0.597676 14.0748 0.773713 13.8988L13.8987 0.773778C13.9858 0.686472 14.0893 0.617204 14.2032 0.569942C14.317 0.522679 14.4391 0.498352 14.5625 0.498352C14.6858 0.498352 14.8079 0.522679 14.9218 0.569942C15.0357 0.617204 15.1391 0.686472 15.2262 0.773778Z" fill="#263238"/>
<path fill-rule="evenodd" clip-rule="evenodd" d="M0.773839 0.773778C0.686533 0.860863 0.617265 0.964318 0.570003 1.07821C0.52274 1.19211 0.498413 1.31421 0.498413 1.43753C0.498413 1.56084 0.52274 1.68294 0.570003 1.79684C0.617265 1.91074 0.686533 2.01419 0.773839 2.10128L13.8988 15.2263C14.0749 15.4023 14.3136 15.5012 14.5626 15.5012C14.8115 15.5012 15.0503 15.4023 15.2263 15.2263C15.4024 15.0502 15.5013 14.8115 15.5013 14.5625C15.5013 14.3136 15.4024 14.0748 15.2263 13.8988L2.10134 0.773778C2.01425 0.686472 1.9108 0.617204 1.7969 0.569942C1.683 0.522679 1.5609 0.498352 1.43759 0.498352C1.31428 0.498352 1.19217 0.522679 1.07828 0.569942C0.964379 0.617204 0.860924 0.686472 0.773839 0.773778Z" fill="#263238"/>
</svg>
