<svg width="40" height="40" viewBox="0 0 40 40" fill="none" xmlns="http://www.w3.org/2000/svg">
<path d="M8 28.5L7.5 36.5L7 37.5L8 37V36H8.5H11L14 37C16.3333 37.6667 21.4 39 23 39C24.6 39 25.6667 38.3333 26 38L37 30V28.5L35 27L27 31L25.5 30H21L20 29.5L17 27.5C16.6667 27.3333 15.7 27 14.5 27C13.3 27 11 27.6667 10 28H8L7 26.5L8 28.5Z" fill="#D9D8E4"/>
<path d="M23.5 25.5H27L27.5 24V18.5C28 18.3333 29.2 17.8 30 17C31 16 31.5 13.5 31.5 13C31.5 12.5 31.5 12 31 10C30.6 8.4 28.8333 7.33333 28 7L27.5 8V13C27.5 14 26.5 14.5 25 14.5C23.8 14.5 23.1667 13.1667 23 12.5V8L22.5 7L21 8C20.3333 8.83333 19 10.8 19 12C19 13.5 19.5 14.5 20 16C20.4 17.2 22.1667 18.1667 23 18.5V22.5L23.5 25.5Z" fill="#5FA9FF"/>
<path d="M36.6771 9.96764H36.2717C36.032 9.12586 35.6972 8.31823 35.2715 7.55465L35.5597 7.26638C35.8895 6.93678 36.071 6.49718 36.071 6.02852C36.071 5.55986 35.8895 5.12034 35.5595 4.79035L33.6392 2.87235C33.3095 2.54056 32.8693 2.35791 32.3998 2.35791C31.9304 2.35791 31.4902 2.54056 31.162 2.87071L30.8742 3.15859C30.11 2.73165 29.3021 2.39619 28.4609 2.15659V1.75121C28.4609 0.785605 27.6754 0 26.7097 0H23.9948C23.0292 0 22.2436 0.785605 22.2436 1.75121V2.15659C21.4025 2.39611 20.5941 2.73165 19.8284 3.1589L19.5419 2.87235C19.212 2.54056 18.7718 2.35791 18.3024 2.35799C17.8329 2.35799 17.3928 2.54072 17.0647 2.87079L15.1448 4.79074C14.815 5.12034 14.6336 5.55994 14.6336 6.0286C14.6336 6.49726 14.815 6.93678 15.1447 7.26638L15.4328 7.55457C15.0054 8.32049 14.6704 9.12828 14.4321 9.96764H14.0251C13.0595 9.96764 12.2739 10.7532 12.2739 11.7188V14.4361C12.2739 15.4017 13.0595 16.1873 14.0251 16.1873H14.4321C14.6704 17.0266 15.0054 17.8344 15.4328 18.6004L15.1447 18.8886C14.815 19.2182 14.6335 19.6578 14.6335 20.1264C14.6335 20.595 14.815 21.0346 15.1446 21.3642L17.063 23.2826C17.3928 23.6144 17.8328 23.797 18.3023 23.797H18.3024C18.7718 23.797 19.212 23.6144 19.5402 23.2843L19.8283 22.9961C20.5948 23.4237 21.4032 23.7588 22.2435 23.997V24.4038C22.2435 25.3694 23.0291 26.155 23.9947 26.155H26.7097C27.6753 26.155 28.4609 25.3694 28.4609 24.4038V23.997C29.3014 23.7587 30.1092 23.4238 30.8742 22.9964L31.1604 23.2826C31.4902 23.6144 31.9303 23.797 32.3997 23.797C32.8693 23.797 33.3095 23.6143 33.6373 23.2846L35.5597 21.3642C35.8894 21.0345 36.0709 20.5949 36.0709 20.1264C36.0709 19.6577 35.8894 19.2182 35.5597 18.8886L35.2715 18.6003C35.6971 17.8367 36.0318 17.0291 36.2716 16.1873H36.6771C37.6427 16.1873 38.4283 15.4017 38.4283 14.4361V11.7188C38.4283 10.7532 37.6428 9.96764 36.6771 9.96764ZM26.8985 24.4038C26.8985 24.5061 26.8121 24.5925 26.7097 24.5925H23.9948C23.8925 24.5925 23.8061 24.5061 23.8061 24.4038V23.3895V18.4644C23.8061 18.1377 23.6028 17.8455 23.2965 17.7319C21.1972 16.9533 19.7868 14.9329 19.7868 12.7044C19.7868 10.9382 20.6662 9.28265 22.1388 8.27604C22.2049 8.23088 22.2634 8.19401 22.3145 8.16378C22.3116 8.26534 22.3045 8.3619 22.3006 8.41229C22.2948 8.49158 22.2901 8.55416 22.2901 8.61627V12.3034C22.2901 13.9958 23.6125 15.4092 25.3005 15.5212C25.3349 15.5234 25.3695 15.5234 25.4039 15.5212C27.0907 15.4093 28.4121 13.9959 28.4121 12.3034V8.61627C28.4121 8.55447 28.4075 8.49228 28.4017 8.41346C28.398 8.36283 28.3908 8.26573 28.388 8.1637C28.439 8.19385 28.4971 8.23065 28.563 8.27573C30.036 9.28258 30.9154 10.9382 30.9154 12.7043C30.9154 14.9326 29.5058 16.9531 27.4077 17.7319C27.1015 17.8456 26.8983 18.1377 26.8983 18.4643V23.3894V24.4038H26.8985ZM36.8659 14.4361C36.8659 14.5367 36.7777 14.6249 36.6771 14.6249H35.6651C35.3001 14.6249 34.9837 14.8776 34.9032 15.2336C34.6558 16.3268 34.2273 17.3605 33.6296 18.306C33.4344 18.6148 33.4792 19.0176 33.7375 19.2758L34.4551 19.9934C34.5016 20.04 34.5086 20.0967 34.5086 20.1264C34.5086 20.156 34.5016 20.2128 34.4553 20.259L32.5312 22.181C32.4872 22.2252 32.4354 22.2345 32.3998 22.2345C32.3643 22.2345 32.3126 22.2252 32.2669 22.1793L31.5494 21.4617C31.2907 21.2031 30.8875 21.1586 30.5788 21.3542C29.9119 21.7768 29.2021 22.1121 28.4609 22.3599V18.984C30.8846 17.856 32.478 15.398 32.478 12.7042C32.478 10.4217 31.3441 8.28393 29.4449 6.98576C29.154 6.78694 28.2692 6.18203 27.4954 6.62741C26.7356 7.0649 26.8113 8.09042 26.8436 8.52838C26.8464 8.56642 26.8491 8.59837 26.8497 8.61627V12.3034C26.8497 13.1586 26.1962 13.8755 25.3523 13.9579C24.5072 13.8754 23.8526 13.1585 23.8526 12.3034L23.8525 8.62189C23.8532 8.59837 23.8561 8.56642 23.8589 8.52822C23.8914 8.0905 23.9678 7.06552 23.2086 6.6278C22.4351 6.18164 21.549 6.78678 21.2575 6.98576C19.3582 8.28401 18.2243 10.4218 18.2243 12.7043C18.2243 15.3985 19.8186 17.8567 22.2436 18.9843V22.36C21.5023 22.1122 20.7916 21.7767 20.1228 21.3539C19.9942 21.2727 19.8495 21.2331 19.7055 21.2331C19.5037 21.2331 19.3036 21.3111 19.1529 21.4619L18.4338 22.181C18.3899 22.2253 18.3381 22.2346 18.3024 22.2346C18.2668 22.2346 18.2152 22.2253 18.1696 22.1794L16.2496 20.2594C16.203 20.2128 16.196 20.156 16.196 20.1264C16.196 20.0968 16.203 20.04 16.2496 19.9934L16.9671 19.2758C17.2254 19.0176 17.2702 18.6148 17.0751 18.306C16.4743 17.3555 16.0459 16.3222 15.8017 15.2349C15.7217 14.8783 15.405 14.6248 15.0395 14.6248H14.0253C13.9247 14.6248 13.8365 14.5366 13.8365 14.436V11.7188C13.8365 11.6164 13.9229 11.53 14.0253 11.53H15.0395C15.405 11.53 15.7217 11.2765 15.8017 10.9199C16.0459 9.83256 16.4742 8.79923 17.0751 7.84878C17.2702 7.54004 17.2254 7.13724 16.9671 6.87897L16.2495 6.16141C16.203 6.11484 16.196 6.05813 16.196 6.02844C16.196 5.99875 16.203 5.94204 16.2496 5.8954L18.1712 3.97373C18.2152 3.92951 18.2669 3.92021 18.3025 3.92021C18.3381 3.92021 18.3899 3.92951 18.4355 3.97537L19.153 4.69293C19.4114 4.95128 19.8142 4.99604 20.1229 4.80089C21.0721 4.20075 22.1066 3.77147 23.1971 3.52514C23.5533 3.44468 23.8062 3.1282 23.8062 2.76313V1.75121C23.8062 1.64886 23.8926 1.56246 23.995 1.56246H26.7099C26.8122 1.56246 26.8986 1.64886 26.8986 1.75121V2.76329C26.8986 3.12844 27.1515 3.44483 27.5077 3.5253C28.5992 3.77186 29.6325 4.20091 30.5789 4.80066C30.8877 4.99628 31.2909 4.95175 31.5495 4.69316L32.2687 3.97396C32.3126 3.92974 32.3644 3.92045 32.4 3.92045C32.4356 3.92045 32.4873 3.92974 32.5333 3.97591L34.4552 5.89563C34.5018 5.94219 34.5088 5.99891 34.5088 6.0286C34.5088 6.05828 34.5018 6.115 34.4552 6.16164L33.7377 6.8792C33.4794 7.13747 33.4346 7.54028 33.6297 7.84902C34.2274 8.79454 34.6559 9.82819 34.9033 10.9214C34.9839 11.2774 35.3003 11.5302 35.6653 11.5302H36.6773C36.7796 11.5302 36.866 11.6166 36.866 11.7189V14.4361H36.8659Z" fill="#222A3F"/>
<path d="M29.9046 34.3992C29.5995 34.7043 29.5995 35.1989 29.9046 35.5041C30.0572 35.6566 30.2571 35.7329 30.457 35.7329C30.6569 35.7329 30.8568 35.6566 31.0094 35.5041L31.0116 35.5019C31.3167 35.1968 31.3156 34.7032 31.0104 34.3982C30.7053 34.0931 30.2097 34.0943 29.9046 34.3992Z" fill="#222A3F"/>
<path fill-rule="evenodd" clip-rule="evenodd" d="M4.035 27.5202C4.04748 27.5202 4.0599 27.5199 4.07224 27.5193H6.76819C7.04576 27.5193 7.28021 27.7538 7.28021 28.0314V36.2318C7.28021 36.5082 7.04576 36.7417 6.76819 36.7417H4.08305C4.06716 36.7407 4.05114 36.7402 4.035 36.7402C3.60146 36.7402 3.25 37.0917 3.25 37.5252C3.25 37.9588 3.60146 38.3102 4.035 38.3102C4.06828 38.3102 4.10108 38.3082 4.13327 38.3041H6.76819C7.68457 38.3041 8.46354 37.7072 8.73736 36.8824H10.4951C10.6504 36.8824 10.6504 36.8824 10.8309 36.9332C10.8965 36.9518 10.9764 36.9743 11.0795 37.002L19.1648 39.1651C19.516 39.2599 19.8385 39.3533 20.1504 39.4436L20.1642 39.4476L20.1647 39.4478C21.2004 39.7479 22.071 40.0001 22.9784 40.0001C24.0042 40.0001 25.0767 39.6778 26.4874 38.7376L26.4965 38.7315L26.5077 38.7237L28.0512 37.623C28.4026 37.3724 28.4843 36.8846 28.2337 36.5333C27.9832 36.1819 27.4952 36.1003 27.1442 36.3508L25.6108 37.4442C23.5637 38.8058 22.6944 38.5541 20.599 37.9469L20.5945 37.9456C20.2731 37.8525 19.9407 37.7562 19.5705 37.6562L11.4846 35.493C11.3899 35.4676 11.3157 35.4466 11.2547 35.4294C10.9597 35.3463 10.8494 35.3201 10.4952 35.3201H8.84275V28.9434H9.68702C9.69827 28.9434 9.70936 28.9431 9.72061 28.9427L9.76514 28.9408C10.42 28.9128 10.6032 28.8949 11.3534 28.5988C14.254 27.4541 16.493 27.3181 19.3547 30.012L19.3933 30.0483C19.8824 30.5079 20.164 30.6951 20.9942 30.6951H25.2437C25.7425 30.6951 26.1774 30.972 26.4041 31.3799L26.4065 31.3841L26.4118 31.3932C26.5131 31.5805 26.5707 31.7947 26.5707 32.0222C26.5707 32.7527 25.9755 33.347 25.2438 33.347H18.3567C17.9253 33.347 17.5755 33.6968 17.5755 34.1282C17.5755 34.5597 17.9253 34.9095 18.3567 34.9095H25.2438C26.8371 34.9095 28.1332 33.6143 28.1332 32.0222C28.1332 31.8058 28.1085 31.5952 28.0632 31.3923L34.2371 28.2217C34.8215 27.9217 35.6205 27.9538 36.0172 28.5976C36.3681 29.165 36.1751 29.9192 35.5685 30.3517L32.8602 32.2805C32.5087 32.5308 32.4267 33.0186 32.677 33.3701C32.8294 33.5841 33.0699 33.6982 33.314 33.6982C33.4708 33.6982 33.6291 33.6511 33.7665 33.5533L36.4751 31.6242C37.7615 30.7071 38.1358 29.0526 37.3466 27.7768C36.5706 26.5173 34.927 26.1109 33.5233 26.8315L27.321 30.0167C26.7953 29.4722 26.0586 29.1325 25.2437 29.1325H20.9941C20.7561 29.1325 20.698 29.1136 20.6941 29.1123C20.6596 29.0941 20.5507 28.9918 20.4633 28.9096L20.4246 28.8732C16.9865 25.6368 14.0823 25.8419 10.7796 27.1453C10.2453 27.3562 10.235 27.3567 9.69835 27.3796L8.73744 27.3803C8.46369 26.5544 7.68465 25.9568 6.76819 25.9568H4.1372C4.10375 25.9524 4.06964 25.9502 4.035 25.9502C3.60146 25.9502 3.25 26.3017 3.25 26.7352C3.25 27.1687 3.60146 27.5202 4.035 27.5202Z" fill="#222A3F"/>
</svg>
