<svg width="45" height="47" viewBox="0 0 45 47" fill="none" xmlns="http://www.w3.org/2000/svg">
<path d="M38 11.1036C38.4783 11.3798 39.0899 11.2159 39.366 10.7376C39.6421 10.2593 39.4783 9.64772 39 9.37158L38 11.1036ZM42.9855 17C42.9855 16.4477 42.5378 16 41.9855 16C41.4333 16 40.9855 16.4477 40.9855 17H42.9855ZM6.0144 10.5179L5.5144 9.65192L6.0144 10.5179ZM25.5 44.2679L26 45.134L25.5 44.2679ZM38.9855 36.4821L38.4855 35.616L38.9855 36.4821ZM38.4855 35.616L25 43.4019L26 45.134L39.4855 37.3481L38.4855 35.616ZM20 43.4019L6.51441 35.616L5.51441 37.3481L19 45.134L20 43.4019ZM4.0144 31.2859V15.7141H2.0144V31.2859H4.0144ZM6.5144 11.384L20 3.59808L19 1.86603L5.5144 9.65192L6.5144 11.384ZM25 3.59808L38 11.1036L39 9.37158L26 1.86603L25 3.59808ZM40.9855 17V31.2859H42.9855V17H40.9855ZM4.0144 15.7141C4.0144 13.9278 4.9674 12.2771 6.5144 11.384L5.5144 9.65192C3.3486 10.9024 2.0144 13.2132 2.0144 15.7141H4.0144ZM6.51441 35.616C4.9674 34.7229 4.0144 33.0722 4.0144 31.2859H2.0144C2.0144 33.7868 3.3486 36.0976 5.51441 37.3481L6.51441 35.616ZM25 43.4019C23.453 44.2951 21.547 44.2951 20 43.4019L19 45.134C21.1658 46.3844 23.8342 46.3844 26 45.134L25 43.4019ZM39.4855 37.3481C41.6514 36.0976 42.9855 33.7868 42.9855 31.2859H40.9855C40.9855 33.0722 40.0326 34.7229 38.4855 35.616L39.4855 37.3481ZM20 3.59808C21.547 2.70491 23.453 2.70491 25 3.59808L26 1.86603C23.8342 0.615596 21.1658 0.615596 19 1.86603L20 3.59808Z" fill="white"/>
<circle cx="41.5" cy="12.7998" r="1" fill="white"/>
<g clip-path="url(#clip0_101_915)">
<path d="M24.2822 19.5236C24.3037 19.4993 24.4045 19.42 24.8002 19.42L26.0978 19.4195C26.5199 19.4195 26.8631 19.0768 26.8631 18.6555V16.3921C26.8631 15.9716 26.5204 15.6288 26.099 15.6281L24.1716 15.625C22.9821 15.625 21.9709 16.0166 21.2473 16.7577C20.527 17.4953 20.1461 18.5251 20.1461 19.7355V20.9563H18.6717C18.2496 20.9563 17.9062 21.299 17.9062 21.7203V24.1579C17.9062 24.5792 18.2496 24.9219 18.6717 24.9219H20.1461V30.611C20.1461 31.0323 20.4895 31.375 20.9116 31.375H23.4388C23.8609 31.375 24.2043 31.0323 24.2043 30.611V24.922H26.0065C26.4286 24.922 26.7719 24.5792 26.7719 24.1581L26.7728 21.7204C26.7728 21.4437 26.622 21.1876 26.379 21.0522C26.2665 20.9894 26.1355 20.9563 26.0004 20.9563H24.2043V19.9919C24.2043 19.6775 24.2467 19.5637 24.2822 19.5236Z" fill="white" stroke="#2D75F6" stroke-width="0.4"/>
</g>
<defs>
<clipPath id="clip0_101_915">
<rect width="15.75" height="15.75" fill="white" transform="translate(14.625 15.625)"/>
</clipPath>
</defs>
</svg>
