<svg width="9" height="17" viewBox="0 0 9 17" fill="none" xmlns="http://www.w3.org/2000/svg">
<path fill-rule="evenodd" clip-rule="evenodd" d="M6.80086 4.21982C6.39326 4.21983 6.215 4.2986 6.1333 4.39062C6.08207 4.44851 6.0528 4.52677 6.03473 4.61424C6.01594 4.70515 6.00496 4.82695 6.00496 4.99168V6.15611H8.00106C8.10378 6.15611 8.20103 6.18139 8.28236 6.22671C8.4623 6.32702 8.5735 6.51648 8.57353 6.72023L8.57257 9.15798C8.57257 9.46825 8.31919 9.72186 8.0072 9.72186H6.00496V15.6109C6.00496 15.9213 5.7515 16.1749 5.43947 16.1749H2.91231C2.60028 16.1749 2.34682 15.9213 2.34682 15.6109V9.72174H0.672425C0.360397 9.72174 0.106934 9.46821 0.106934 9.15774V6.72011C0.106934 6.40964 0.360397 6.15611 0.672425 6.15611H2.34682V4.73537C2.34682 3.56744 2.71351 2.5911 3.39108 1.89721C4.07132 1.20057 5.02801 0.824864 6.17233 0.824829L8.09934 0.827953C8.41076 0.828496 8.66383 1.08207 8.66383 1.39195V3.65534C8.66383 3.96585 8.41037 4.21934 8.09839 4.21934L6.80086 4.21982Z" fill="#F9F9F9"/>
</svg>
