<svg width="19" height="19" viewBox="0 0 19 19" fill="none" xmlns="http://www.w3.org/2000/svg">
<g clip-path="url(#clip0_101_69)">
<path d="M9.5 6.125C7.63905 6.125 6.125 7.63905 6.125 9.5C6.125 11.3609 7.63905 12.875 9.5 12.875C11.3609 12.875 12.875 11.3609 12.875 9.5C12.875 7.63905 11.3611 6.125 9.5 6.125Z" fill="#F9F9F9"/>
<path d="M16.6863 2.31371C15.5167 1.14407 13.9676 0.5 12.3243 0.5H6.67569C5.03241 0.5 3.4832 1.14407 2.31371 2.31371C1.14407 3.4832 0.5 5.03241 0.5 6.67569V12.3242C0.5 13.9676 1.14407 15.5168 2.31371 16.6863C3.4832 17.8559 5.03241 18.5 6.67569 18.5H12.3243C13.9676 18.5 15.5168 17.8559 16.6863 16.6863C17.8558 15.5168 18.5 13.9676 18.5 12.3242V6.67569C18.5 5.03241 17.8558 3.4832 16.6863 2.31371ZM9.5 14.2637C6.87331 14.2637 4.73633 12.1267 4.73633 9.5C4.73633 6.87331 6.87331 4.73633 9.5 4.73633C12.1267 4.73633 14.2637 6.87331 14.2637 9.5C14.2637 12.1267 12.1267 14.2637 9.5 14.2637ZM14.7773 4.96855C14.6792 5.0666 14.5431 5.12291 14.4044 5.12291C14.2656 5.12291 14.1298 5.0666 14.0317 4.96855C13.9333 4.87036 13.8771 4.73441 13.8771 4.59557C13.8771 4.45673 13.9333 4.32063 14.0317 4.22258C14.1298 4.12439 14.2655 4.06822 14.4044 4.06822C14.5431 4.06822 14.6792 4.12439 14.7773 4.22258C14.8755 4.32063 14.9318 4.45673 14.9318 4.59557C14.9318 4.73427 14.8755 4.87036 14.7773 4.96855Z" fill="#F9F9F9"/>
</g>
<defs>
<clipPath id="clip0_101_69">
<rect width="18" height="18" fill="white" transform="translate(0.5 0.5)"/>
</clipPath>
</defs>
</svg>
