<svg width="45" height="47" viewBox="0 0 45 47" fill="none" xmlns="http://www.w3.org/2000/svg">
<path d="M38 11.1036C38.4783 11.3798 39.0899 11.2159 39.366 10.7376C39.6421 10.2593 39.4783 9.64772 39 9.37158L38 11.1036ZM42.9855 17C42.9855 16.4477 42.5378 16 41.9855 16C41.4333 16 40.9855 16.4477 40.9855 17H42.9855ZM6.0144 10.5179L5.5144 9.65192L6.0144 10.5179ZM25.5 44.2679L26 45.134L25.5 44.2679ZM38.9855 36.4821L38.4855 35.616L38.9855 36.4821ZM38.4855 35.616L25 43.4019L26 45.134L39.4855 37.3481L38.4855 35.616ZM20 43.4019L6.51441 35.616L5.51441 37.3481L19 45.134L20 43.4019ZM4.0144 31.2859V15.7141H2.0144V31.2859H4.0144ZM6.5144 11.384L20 3.59808L19 1.86603L5.5144 9.65192L6.5144 11.384ZM25 3.59808L38 11.1036L39 9.37158L26 1.86603L25 3.59808ZM40.9855 17V31.2859H42.9855V17H40.9855ZM4.0144 15.7141C4.0144 13.9278 4.9674 12.2771 6.5144 11.384L5.5144 9.65192C3.3486 10.9024 2.0144 13.2132 2.0144 15.7141H4.0144ZM6.51441 35.616C4.9674 34.7229 4.0144 33.0722 4.0144 31.2859H2.0144C2.0144 33.7868 3.3486 36.0976 5.51441 37.3481L6.51441 35.616ZM25 43.4019C23.453 44.2951 21.547 44.2951 20 43.4019L19 45.134C21.1658 46.3844 23.8342 46.3844 26 45.134L25 43.4019ZM39.4855 37.3481C41.6514 36.0976 42.9855 33.7868 42.9855 31.2859H40.9855C40.9855 33.0722 40.0326 34.7229 38.4855 35.616L39.4855 37.3481ZM20 3.59808C21.547 2.70491 23.453 2.70491 25 3.59808L26 1.86603C23.8342 0.615596 21.1658 0.615596 19 1.86603L20 3.59808Z" fill="white"/>
<circle cx="41.5" cy="12.7998" r="1" fill="white"/>
<g clip-path="url(#clip0_101_900)">
<path d="M22.5 20.125C20.6391 20.125 19.125 21.6391 19.125 23.5C19.125 25.3609 20.6391 26.875 22.5 26.875C24.3609 26.875 25.875 25.3609 25.875 23.5C25.875 21.6391 24.3611 20.125 22.5 20.125Z" fill="white"/>
<path d="M29.6863 16.3137C28.5167 15.1441 26.9676 14.5 25.3243 14.5H19.6757C18.0324 14.5 16.4832 15.1441 15.3137 16.3137C14.1441 17.4832 13.5 19.0324 13.5 20.6757V26.3242C13.5 27.9676 14.1441 29.5168 15.3137 30.6863C16.4832 31.8559 18.0324 32.5 19.6757 32.5H25.3243C26.9676 32.5 28.5168 31.8559 29.6863 30.6863C30.8558 29.5168 31.5 27.9676 31.5 26.3242V20.6757C31.5 19.0324 30.8558 17.4832 29.6863 16.3137ZM22.5 28.2637C19.8733 28.2637 17.7363 26.1267 17.7363 23.5C17.7363 20.8733 19.8733 18.7363 22.5 18.7363C25.1267 18.7363 27.2637 20.8733 27.2637 23.5C27.2637 26.1267 25.1267 28.2637 22.5 28.2637ZM27.7773 18.9686C27.6792 19.0666 27.5431 19.1229 27.4044 19.1229C27.2656 19.1229 27.1298 19.0666 27.0317 18.9686C26.9333 18.8704 26.8771 18.7344 26.8771 18.5956C26.8771 18.4567 26.9333 18.3206 27.0317 18.2226C27.1298 18.1244 27.2655 18.0682 27.4044 18.0682C27.5431 18.0682 27.6792 18.1244 27.7773 18.2226C27.8755 18.3206 27.9318 18.4567 27.9318 18.5956C27.9318 18.7343 27.8755 18.8704 27.7773 18.9686Z" fill="white"/>
</g>
<defs>
<clipPath id="clip0_101_900">
<rect width="18" height="18" fill="white" transform="translate(13.5 14.5)"/>
</clipPath>
</defs>
</svg>
