<svg width="36" height="36" viewBox="0 0 36 36" fill="none" xmlns="http://www.w3.org/2000/svg">
<path d="M19.2837 34.9661C15.8242 34.8641 12.9427 33.3936 10.8007 30.5291C9.60216 28.9226 8.38666 27.3246 7.28166 25.6586C5.50516 23.0066 4.03466 20.2016 2.78516 17.2691C2.23266 15.9601 1.63766 14.6596 1.29766 13.2656C0.881156 11.5486 0.898156 9.83156 1.34016 8.13156C1.98616 5.66656 3.35466 3.69456 5.41166 2.19856C6.21066 1.62056 7.05216 1.14456 8.06366 1.07656C9.73816 0.966061 11.1067 1.55256 12.0332 2.94656C12.7727 4.06856 13.4442 5.24156 14.0477 6.44006C15.0252 8.37806 14.3367 10.7411 12.5177 11.9141C11.8632 12.3391 11.1832 12.7131 10.5032 13.1041C9.59366 13.6226 9.32166 14.4556 9.77216 15.3991C11.1492 18.3146 12.7557 21.1026 14.6087 23.7376C15.0677 24.3921 15.8922 24.6386 16.6232 24.2731C17.2862 23.9501 17.9152 23.5591 18.5527 23.1851C20.2612 22.1736 22.2672 22.3351 23.7717 23.6356C24.0692 23.8906 24.3242 24.2051 24.5282 24.5366C25.1317 25.5311 25.7097 26.5426 26.2877 27.5541C27.5117 29.7131 26.8232 32.2886 24.6812 33.5636C23.2447 34.4221 21.0432 35.0001 19.2837 34.9661ZM23.9842 32.4586C25.3782 31.7276 26.0242 29.9341 25.3527 28.5826C24.8427 27.5626 24.2307 26.5936 23.6782 25.5906C23.1512 24.6301 22.3862 24.0011 21.2727 23.8481C20.5587 23.7461 19.8957 23.8821 19.2667 24.2901C20.8392 27.0186 22.4032 29.7301 23.9842 32.4586Z" fill="#D9D8E4" stroke="#222A3F" stroke-width="0.3"/>
<path d="M11 12L6 3L7 2L9 1.5L11 3L14 8L13.5 10L11 12Z" fill="#5FA9FF"/>
<path d="M23.5 33L18.5 24L20.5 23L22.5 23.5L26.5 29L26 31L25 32.5L23.5 33Z" fill="#5FA9FF"/>
<path d="M19.2834 34.9661C15.8239 34.8641 12.9424 33.3936 10.8004 30.5291C9.60191 28.9226 8.38641 27.3246 7.28141 25.6586C5.50491 23.0066 4.03441 20.2016 2.78491 17.2691C2.23241 15.9601 1.63741 14.6596 1.29741 13.2656C0.880912 11.5486 0.897912 9.83156 1.33991 8.13156C1.98591 5.66656 3.35441 3.69456 5.41141 2.19856C6.21041 1.62056 7.05191 1.14456 8.06341 1.07656C9.73791 0.966061 11.1064 1.55256 12.0329 2.94656C12.7724 4.06856 13.4439 5.24156 14.0474 6.44006C15.0249 8.37806 14.3364 10.7411 12.5174 11.9141C11.8629 12.3391 11.1829 12.7131 10.5029 13.1041C9.59341 13.6226 9.32141 14.4556 9.77191 15.3991C11.1489 18.3146 12.7554 21.1026 14.6084 23.7376C15.0674 24.3921 15.8919 24.6386 16.6229 24.2731C17.2859 23.9501 17.9149 23.5591 18.5524 23.1851C20.2609 22.1736 22.2669 22.3351 23.7714 23.6356C24.0689 23.8906 24.3239 24.2051 24.5279 24.5366C25.1314 25.5311 25.7094 26.5426 26.2874 27.5541C27.5114 29.7131 26.8229 32.2886 24.6809 33.5636C23.2444 34.4221 21.0429 35.0001 19.2834 34.9661ZM11.6079 11.0046C11.8544 10.8091 12.0754 10.6816 12.2539 10.5031C13.2909 9.42356 13.5119 8.09756 12.8064 6.77156C12.2454 5.70906 11.6334 4.66356 10.9789 3.65206C10.1119 2.31756 8.22491 1.93506 6.86491 2.77656C6.04041 3.28656 5.28391 3.86456 4.64641 4.60406C2.41091 7.19656 1.75641 10.1546 2.67441 13.4356C2.99741 14.5746 3.49891 15.6711 3.95791 16.7676C4.87591 18.9436 5.95541 21.0346 7.15391 23.0661C8.60741 25.5311 10.2564 27.8601 12.0584 30.0786C12.7979 30.9966 13.6479 31.7786 14.6679 32.3736C16.6909 33.5636 18.8584 33.9291 21.1534 33.5041C21.7144 33.4021 22.2584 33.2236 22.8534 33.0621C21.2554 30.2996 19.7084 27.6136 18.1444 24.9106C17.8894 25.0551 17.6684 25.1741 17.4474 25.3016C15.9684 26.1516 14.3704 25.6501 13.5119 24.4091C11.6419 21.7146 10.0099 18.8926 8.61591 15.9261C7.90191 14.3961 8.37791 12.8576 9.83991 12.0076C10.0439 11.8886 10.2564 11.7611 10.4689 11.6336C10.1969 11.1661 9.95041 10.7241 9.69541 10.2906C9.11741 9.27906 8.52241 8.27606 7.95291 7.26456C7.73191 6.87356 7.83391 6.49106 8.16541 6.32106C8.48841 6.15106 8.84541 6.27856 9.05791 6.64406C9.78041 7.88506 10.4944 9.13456 11.2169 10.3756C11.3444 10.5796 11.4634 10.7751 11.6079 11.0046ZM23.9839 32.4586C25.3779 31.7276 26.0239 29.9341 25.3524 28.5826C24.8424 27.5626 24.2304 26.5936 23.6779 25.5906C23.1509 24.6301 22.3859 24.0011 21.2724 23.8481C20.5584 23.7461 19.8954 23.8821 19.2664 24.2901C20.8389 27.0186 22.4029 29.7301 23.9839 32.4586Z" fill="#222A3F" stroke="#222A3F" stroke-width="0.3"/>
<path d="M34.9997 17.8554C34.9402 22.2924 33.5292 26.0664 30.6902 29.2964C30.5032 29.5089 30.3077 29.7129 30.1037 29.9169C29.8062 30.2229 29.4237 30.2654 29.1602 30.0359C28.8712 29.7809 28.8712 29.4069 29.1602 29.0584C29.7297 28.3784 30.3417 27.7239 30.8602 27.0014C32.2542 25.0634 33.1297 22.9044 33.4952 20.5499C33.8352 18.3654 33.7502 16.1894 33.1977 14.0474C32.6452 11.9139 31.6847 9.97586 30.3077 8.25036C28.4887 5.95536 26.1937 4.30636 23.4567 3.30336C22.5387 2.97186 21.5697 2.78486 20.6177 2.53836C20.1842 2.42786 19.9547 2.09636 20.0737 1.71386C20.1672 1.41636 20.4562 1.22936 20.8217 1.28886C22.3177 1.52686 23.7457 1.97736 25.1227 2.60636C26.8737 3.41386 28.4462 4.49336 29.8317 5.83636C31.1492 7.11136 32.2372 8.56486 33.0702 10.2054C34.0902 12.1944 34.6852 14.3024 34.9147 16.5124C34.9827 17.0139 34.9827 17.5069 34.9997 17.8554Z" fill="#222A3F" stroke="#222A3F" stroke-width="0.3"/>
<path d="M17.6088 18.6458C17.1753 18.6458 16.7418 18.6458 16.2998 18.6458C15.8748 18.6373 15.6198 18.4163 15.6113 18.0083C15.5943 17.4898 15.5858 16.9713 15.6283 16.4613C15.7048 15.5518 16.5123 14.8888 17.5493 14.8293C18.1103 14.7953 18.3993 14.5743 18.3823 14.1663C18.3653 13.7753 18.0678 13.5713 17.5153 13.5713C17.0478 13.5628 16.5888 13.5713 16.1213 13.5373C15.8578 13.5203 15.6793 13.3333 15.6283 13.0783C15.5688 12.8233 15.6368 12.5853 15.8578 12.4323C15.9683 12.3558 16.1128 12.2878 16.2488 12.2878C16.8438 12.2878 17.4473 12.2623 18.0338 12.3388C19.0878 12.4748 19.7168 13.3333 19.6488 14.4383C19.5893 15.3223 18.7563 16.0788 17.7958 16.1128C17.7108 16.1128 17.6343 16.1128 17.5493 16.1128C17.1668 16.1298 16.9458 16.3168 16.8778 16.6908C16.8523 16.8268 16.8693 16.9713 16.8523 17.1158C16.8268 17.3368 16.9288 17.3963 17.1328 17.3878C17.7193 17.3793 18.3058 17.3793 18.8923 17.3878C19.3683 17.3878 19.6403 17.6343 19.6403 18.0338C19.6318 18.4333 19.3598 18.6628 18.8753 18.6628C18.8668 18.6628 18.8583 18.6628 18.8413 18.6628C18.4333 18.6458 18.0253 18.6458 17.6088 18.6458Z" fill="#222A3F" stroke="#222A3F" stroke-width="0.3"/>
<path d="M26.9167 14.6339C27.3672 14.6339 27.7752 14.5575 28.1407 14.651C29.1437 14.889 29.6792 15.6199 29.7132 16.6824C29.7302 17.0904 29.7217 17.4899 29.7132 17.8979C29.7047 18.3654 29.4412 18.6544 29.0587 18.6459C28.6847 18.6289 28.4467 18.3484 28.4467 17.8894C28.4467 17.4984 28.4552 17.0989 28.4467 16.7079C28.4382 16.2064 28.1152 15.8579 27.6817 15.8664C27.2482 15.8749 26.9422 16.1979 26.9252 16.6909C26.9082 17.1754 26.9337 17.6684 26.8827 18.1444C26.8232 18.6289 26.2367 18.8244 25.8882 18.4844C25.7607 18.3654 25.6672 18.1529 25.6672 17.9829C25.6502 16.2404 25.6502 14.498 25.6587 12.7555C25.6587 12.3475 25.8882 12.101 26.2537 12.084C26.6192 12.067 26.8827 12.2795 26.9082 12.6875C26.9422 13.2145 26.9252 13.7415 26.9252 14.2685C26.9167 14.3875 26.9167 14.5149 26.9167 14.6339Z" fill="#222A3F" stroke="#222A3F" stroke-width="0.3"/>
<path d="M24.698 15.3394C24.698 16.2234 24.698 17.0989 24.698 17.9829C24.698 18.2464 24.579 18.4504 24.341 18.5694C24.12 18.6799 23.882 18.6799 23.7205 18.5099C23.5845 18.3569 23.474 18.1359 23.457 17.9404C23.423 17.4389 23.4315 16.9289 23.4485 16.4189C23.457 16.1894 23.372 16.1129 23.151 16.1214C22.76 16.1299 22.3605 16.1299 21.9695 16.0959C21.264 16.0449 20.6945 15.4669 20.669 14.7614C20.6435 14.0814 20.6435 13.4014 20.6605 12.7299C20.669 12.2964 20.907 12.0669 21.2895 12.0754C21.6635 12.0839 21.893 12.3219 21.9015 12.7554C21.91 13.3164 21.9015 13.8689 21.91 14.4299C21.91 14.7954 21.9865 14.8634 22.3605 14.8719C22.6155 14.8719 22.8705 14.8549 23.117 14.8719C23.3635 14.8889 23.457 14.8124 23.4485 14.5489C23.4315 13.9454 23.4315 13.3334 23.4485 12.7299C23.457 12.3389 23.6695 12.1179 24.001 12.0839C24.409 12.0414 24.6895 12.2964 24.698 12.7384C24.7065 13.5969 24.698 14.4724 24.698 15.3394Z" fill="#222A3F" stroke="#222A3F" stroke-width="0.3"/>
<path d="M18.7394 1.69686C18.7309 2.03686 18.4164 2.34286 18.0679 2.34286C17.7024 2.33436 17.3794 2.01136 17.3964 1.66286C17.4134 1.33136 17.7534 1.01686 18.0934 1.03386C18.4504 1.05086 18.7479 1.35686 18.7394 1.69686Z" fill="#222A3F" stroke="#222A3F" stroke-width="0.3"/>
<path d="M7.34107 5.53055C6.99257 5.53055 6.69507 5.25005 6.69507 4.91005C6.69507 4.57005 6.99257 4.28955 7.34107 4.28955C7.68957 4.28955 7.95307 4.55305 7.96157 4.89305C7.97007 5.25005 7.69807 5.53055 7.34107 5.53055Z" fill="#222A3F" stroke="#222A3F" stroke-width="0.3"/>
</svg>
