<svg width="41" height="47" viewBox="0 0 41 47" fill="none" xmlns="http://www.w3.org/2000/svg">
<path d="M36 11.1036C36.4783 11.3798 37.0899 11.2159 37.366 10.7376C37.6421 10.2593 37.4783 9.64772 37 9.37158L36 11.1036ZM40.9855 17C40.9855 16.4477 40.5378 16 39.9855 16C39.4333 16 38.9855 16.4477 38.9855 17H40.9855ZM4.0144 10.5179L3.5144 9.65192L4.0144 10.5179ZM23.5 44.2679L24 45.134L23.5 44.2679ZM36.9855 36.4821L36.4855 35.616L36.9855 36.4821ZM36.4855 35.616L23 43.4019L24 45.134L37.4855 37.3481L36.4855 35.616ZM18 43.4019L4.51441 35.616L3.51441 37.3481L17 45.134L18 43.4019ZM2.0144 31.2859V15.7141H0.0144043V31.2859H2.0144ZM4.5144 11.384L18 3.59808L17 1.86603L3.5144 9.65192L4.5144 11.384ZM23 3.59808L36 11.1036L37 9.37158L24 1.86603L23 3.59808ZM38.9855 17V31.2859H40.9855V17H38.9855ZM2.0144 15.7141C2.0144 13.9278 2.9674 12.2771 4.5144 11.384L3.5144 9.65192C1.3486 10.9024 0.0144043 13.2132 0.0144043 15.7141H2.0144ZM4.51441 35.616C2.9674 34.7229 2.0144 33.0722 2.0144 31.2859H0.0144043C0.0144043 33.7868 1.3486 36.0976 3.51441 37.3481L4.51441 35.616ZM23 43.4019C21.453 44.2951 19.547 44.2951 18 43.4019L17 45.134C19.1658 46.3844 21.8342 46.3844 24 45.134L23 43.4019ZM37.4855 37.3481C39.6514 36.0976 40.9855 33.7868 40.9855 31.2859H38.9855C38.9855 33.0722 38.0326 34.7229 36.4855 35.616L37.4855 37.3481ZM18 3.59808C19.547 2.70491 21.453 2.70491 23 3.59808L24 1.86603C21.8342 0.615596 19.1658 0.615596 17 1.86603L18 3.59808Z" fill="#F9F9F9"/>
</svg>
