<svg width="21" height="21" viewBox="0 0 21 21" fill="none" xmlns="http://www.w3.org/2000/svg">
<g clip-path="url(#clip0_101_77)">
<path d="M19.591 5.75519C19.3722 4.94188 18.731 4.30077 17.9178 4.08177C16.4322 3.67529 10.4898 3.67529 10.4898 3.67529C10.4898 3.67529 4.54752 3.67529 3.06194 4.06636C2.26439 4.28512 1.60752 4.942 1.38875 5.75519C0.997803 7.24066 0.997803 10.3213 0.997803 10.3213C0.997803 10.3213 0.997803 13.4175 1.38875 14.8875C1.60775 15.7007 2.24875 16.3418 3.06205 16.5608C4.56317 16.9674 10.49 16.9674 10.49 16.9674C10.49 16.9674 16.4322 16.9674 17.9178 16.5763C18.7311 16.3574 19.3722 15.7163 19.5912 14.9031C19.9821 13.4175 19.9821 10.337 19.9821 10.337C19.9821 10.337 19.9977 7.24066 19.591 5.75519ZM8.59781 13.1674V7.4753L13.5393 10.3213L8.59781 13.1674Z" fill="#F9F9F9"/>
</g>
<defs>
<clipPath id="clip0_101_77">
<rect width="20.25" height="20.25" fill="white" transform="translate(0.375 0.375)"/>
</clipPath>
</defs>
</svg>
