<svg width="45" height="47" viewBox="0 0 45 47" fill="none" xmlns="http://www.w3.org/2000/svg">
<path d="M38 11.1036C38.4783 11.3798 39.0899 11.2159 39.366 10.7376C39.6421 10.2593 39.4783 9.64772 39 9.37158L38 11.1036ZM42.9855 17C42.9855 16.4477 42.5378 16 41.9855 16C41.4333 16 40.9855 16.4477 40.9855 17H42.9855ZM6.0144 10.5179L5.5144 9.65192L6.0144 10.5179ZM25.5 44.2679L26 45.134L25.5 44.2679ZM38.9855 36.4821L38.4855 35.616L38.9855 36.4821ZM38.4855 35.616L25 43.4019L26 45.134L39.4855 37.3481L38.4855 35.616ZM20 43.4019L6.51441 35.616L5.51441 37.3481L19 45.134L20 43.4019ZM4.0144 31.2859V15.7141H2.0144V31.2859H4.0144ZM6.5144 11.384L20 3.59808L19 1.86603L5.5144 9.65192L6.5144 11.384ZM25 3.59808L38 11.1036L39 9.37158L26 1.86603L25 3.59808ZM40.9855 17V31.2859H42.9855V17H40.9855ZM4.0144 15.7141C4.0144 13.9278 4.9674 12.2771 6.5144 11.384L5.5144 9.65192C3.3486 10.9024 2.0144 13.2132 2.0144 15.7141H4.0144ZM6.51441 35.616C4.9674 34.7229 4.0144 33.0722 4.0144 31.2859H2.0144C2.0144 33.7868 3.3486 36.0976 5.51441 37.3481L6.51441 35.616ZM25 43.4019C23.453 44.2951 21.547 44.2951 20 43.4019L19 45.134C21.1658 46.3844 23.8342 46.3844 26 45.134L25 43.4019ZM39.4855 37.3481C41.6514 36.0976 42.9855 33.7868 42.9855 31.2859H40.9855C40.9855 33.0722 40.0326 34.7229 38.4855 35.616L39.4855 37.3481ZM20 3.59808C21.547 2.70491 23.453 2.70491 25 3.59808L26 1.86603C23.8342 0.615596 21.1658 0.615596 19 1.86603L20 3.59808Z" fill="white"/>
<circle cx="41.5" cy="12.7998" r="1" fill="white"/>
<g clip-path="url(#clip0_101_908)">
<path d="M31.591 18.7552C31.3722 17.9419 30.731 17.3008 29.9178 17.0818C28.4322 16.6753 22.4898 16.6753 22.4898 16.6753C22.4898 16.6753 16.5475 16.6753 15.0619 17.0664C14.2644 17.2851 13.6075 17.942 13.3888 18.7552C12.9978 20.2407 12.9978 23.3213 12.9978 23.3213C12.9978 23.3213 12.9978 26.4175 13.3888 27.8875C13.6077 28.7007 14.2488 29.3418 15.0621 29.5608C16.5632 29.9674 22.49 29.9674 22.49 29.9674C22.49 29.9674 28.4322 29.9674 29.9178 29.5763C30.7311 29.3574 31.3722 28.7163 31.5912 27.9031C31.9821 26.4175 31.9821 23.337 31.9821 23.337C31.9821 23.337 31.9977 20.2407 31.591 18.7552ZM20.5978 26.1674V20.4753L25.5393 23.3213L20.5978 26.1674Z" fill="white"/>
</g>
<defs>
<clipPath id="clip0_101_908">
<rect width="20.25" height="20.25" fill="white" transform="translate(12.375 13.375)"/>
</clipPath>
</defs>
</svg>
